<svg id="SvgjsSvg1001" width="288" height="288" xmlns="http://www.w3.org/2000/svg" version="1.1" xmlns:xlink="http://www.w3.org/1999/xlink" xmlns:svgjs="http://svgjs.com/svgjs"><defs id="SvgjsDefs1002"></defs><g id="SvgjsG1008" transform="matrix(0.9167,0,0,0.9167,11.959213989448557,11.9952003177643)"><!--?xml version="1.0" encoding="UTF-8"?--><svg xmlns="http://www.w3.org/2000/svg" xmlns:xlink="http://www.w3.org/1999/xlink" version="1.1" id="Layer_1" x="0px" y="0px" width="288" height="288" viewBox="0 0 24 24" xml:space="preserve"><path d="M23.3 7.3c0-.2-.3-1.8-1-2.5-.9-1-1.9-1.1-2.4-1.1h-.1c-3.1-.2-7.7-.2-7.8-.2 0 0-4.7 0-7.8.2h-.1c-.5 0-1.5.1-2.4 1.1-.7.8-1 2.4-1 2.6 0 .1-.2 1.9-.2 3.8v1.7c0 1.9.2 3.7.2 3.8 0 .2.3 1.8 1 2.5.8.9 1.8 1 2.4 1.1h.3c1.8.2 7.3.2 7.5.2 0 0 4.7 0 7.8-.2h.1c.5-.1 1.5-.2 2.4-1.1.7-.8 1-2.4 1-2.6 0-.1.2-1.9.2-3.8v-1.7c.1-1.8-.1-3.7-.1-3.8zm-7.4 4.9l-6 3.2c-.1 0-.1.1-.2.1s-.2 0-.2-.1c-.1-.1-.2-.2-.2-.4V8.5c0-.2.1-.3.2-.4s.3-.1.5 0l6 3.2c.2.1.3.2.3.4s-.2.4-.4.5z" fill="#ffffff" class="color000 svgShape"></path><metadata><rdf:rdf xmlns:rdf="http://www.w3.org/1999/02/22-rdf-syntax-ns#" xmlns:rdfs="http://www.w3.org/2000/01/rdf-schema#" xmlns:dc="http://purl.org/dc/elements/1.1/"><rdf:description about="https://iconscout.com/legal#licenses" dc:title="youtube,video" dc:description="youtube,video" dc:publisher="Iconscout" dc:date="2018-01-30" dc:format="image/svg+xml" dc:language="en"><dc:creator><rdf:bag><rdf:li>Roundicons.com</rdf:li></rdf:bag></dc:creator></rdf:description></rdf:rdf></metadata></svg></g></svg>